<svg width="136" height="48" viewBox="0 0 136 48" fill="none" xmlns="http://www.w3.org/2000/svg">
<rect width="136" height="48" rx="24" fill="#1AA789"/>
<path d="M30.752 28H29.384L25.268 21.772V28H23.9V19.648H25.268L29.384 25.864V19.648H30.752V28ZM38.6084 24.532C38.6084 24.78 38.5924 25.004 38.5604 25.204H33.5084C33.5484 25.732 33.7444 26.156 34.0964 26.476C34.4484 26.796 34.8804 26.956 35.3924 26.956C36.1284 26.956 36.6484 26.648 36.9524 26.032H38.4284C38.2284 26.64 37.8644 27.14 37.3364 27.532C36.8164 27.916 36.1684 28.108 35.3924 28.108C34.7604 28.108 34.1924 27.968 33.6884 27.688C33.1924 27.4 32.8004 27 32.5124 26.488C32.2324 25.968 32.0924 25.368 32.0924 24.688C32.0924 24.008 32.2284 23.412 32.5004 22.9C32.7804 22.38 33.1684 21.98 33.6644 21.7C34.1684 21.42 34.7444 21.28 35.3924 21.28C36.0164 21.28 36.5724 21.416 37.0604 21.688C37.5484 21.96 37.9284 22.344 38.2004 22.84C38.4724 23.328 38.6084 23.892 38.6084 24.532ZM37.1804 24.1C37.1724 23.596 36.9924 23.192 36.6404 22.888C36.2884 22.584 35.8524 22.432 35.3324 22.432C34.8604 22.432 34.4564 22.584 34.1204 22.888C33.7844 23.184 33.5844 23.588 33.5204 24.1H37.1804ZM42.7867 24.652L44.9227 28H43.3747L41.9467 25.756L40.6027 28H39.1747L41.3107 24.748L39.1747 21.388H40.7227L42.1507 23.632L43.4947 21.388H44.9227L42.7867 24.652ZM47.539 22.504V26.164C47.539 26.412 47.595 26.592 47.707 26.704C47.827 26.808 48.027 26.86 48.307 26.86H49.147V28H48.067C47.451 28 46.979 27.856 46.651 27.568C46.323 27.28 46.159 26.812 46.159 26.164V22.504H45.379V21.388H46.159V19.744H47.539V21.388H49.147V22.504H47.539ZM53.069 23.812C53.069 22.996 53.257 22.264 53.633 21.616C54.017 20.968 54.533 20.464 55.181 20.104C55.837 19.736 56.553 19.552 57.329 19.552C58.217 19.552 59.005 19.772 59.693 20.212C60.389 20.644 60.893 21.26 61.205 22.06H59.561C59.345 21.62 59.045 21.292 58.661 21.076C58.277 20.86 57.833 20.752 57.329 20.752C56.777 20.752 56.285 20.876 55.853 21.124C55.421 21.372 55.081 21.728 54.833 22.192C54.593 22.656 54.473 23.196 54.473 23.812C54.473 24.428 54.593 24.968 54.833 25.432C55.081 25.896 55.421 26.256 55.853 26.512C56.285 26.76 56.777 26.884 57.329 26.884C57.833 26.884 58.277 26.776 58.661 26.56C59.045 26.344 59.345 26.016 59.561 25.576H61.205C60.893 26.376 60.389 26.992 59.693 27.424C59.005 27.856 58.217 28.072 57.329 28.072C56.545 28.072 55.829 27.892 55.181 27.532C54.533 27.164 54.017 26.656 53.633 26.008C53.257 25.36 53.069 24.628 53.069 23.812ZM68.7943 21.388V28H67.4263V27.22C67.2103 27.492 66.9263 27.708 66.5743 27.868C66.2303 28.02 65.8623 28.096 65.4703 28.096C64.9503 28.096 64.4823 27.988 64.0663 27.772C63.6583 27.556 63.3343 27.236 63.0943 26.812C62.8623 26.388 62.7463 25.876 62.7463 25.276V21.388H64.1023V25.072C64.1023 25.664 64.2503 26.12 64.5463 26.44C64.8423 26.752 65.2463 26.908 65.7583 26.908C66.2703 26.908 66.6743 26.752 66.9703 26.44C67.2743 26.12 67.4263 25.664 67.4263 25.072V21.388H68.7943ZM72.9992 28.108C72.4792 28.108 72.0112 28.016 71.5952 27.832C71.1872 27.64 70.8632 27.384 70.6232 27.064C70.3832 26.736 70.2552 26.372 70.2392 25.972H71.6552C71.6792 26.252 71.8112 26.488 72.0512 26.68C72.2992 26.864 72.6072 26.956 72.9752 26.956C73.3592 26.956 73.6552 26.884 73.8632 26.74C74.0792 26.588 74.1872 26.396 74.1872 26.164C74.1872 25.916 74.0672 25.732 73.8272 25.612C73.5952 25.492 73.2232 25.36 72.7112 25.216C72.2152 25.08 71.8112 24.948 71.4992 24.82C71.1872 24.692 70.9152 24.496 70.6832 24.232C70.4592 23.968 70.3472 23.62 70.3472 23.188C70.3472 22.836 70.4512 22.516 70.6592 22.228C70.8672 21.932 71.1632 21.7 71.5472 21.532C71.9392 21.364 72.3872 21.28 72.8912 21.28C73.6432 21.28 74.2472 21.472 74.7032 21.856C75.1672 22.232 75.4152 22.748 75.4472 23.404H74.0792C74.0552 23.108 73.9352 22.872 73.7192 22.696C73.5032 22.52 73.2112 22.432 72.8432 22.432C72.4832 22.432 72.2072 22.5 72.0152 22.636C71.8232 22.772 71.7272 22.952 71.7272 23.176C71.7272 23.352 71.7912 23.5 71.9192 23.62C72.0472 23.74 72.2032 23.836 72.3872 23.908C72.5712 23.972 72.8432 24.056 73.2032 24.16C73.6832 24.288 74.0752 24.42 74.3792 24.556C74.6912 24.684 74.9592 24.876 75.1832 25.132C75.4072 25.388 75.5232 25.728 75.5312 26.152C75.5312 26.528 75.4272 26.864 75.2192 27.16C75.0112 27.456 74.7152 27.688 74.3312 27.856C73.9552 28.024 73.5112 28.108 72.9992 28.108ZM78.6054 22.504V26.164C78.6054 26.412 78.6614 26.592 78.7734 26.704C78.8934 26.808 79.0934 26.86 79.3734 26.86H80.2134V28H79.1334C78.5174 28 78.0454 27.856 77.7174 27.568C77.3894 27.28 77.2254 26.812 77.2254 26.164V22.504H76.4454V21.388H77.2254V19.744H78.6054V21.388H80.2134V22.504H78.6054ZM84.3422 28.108C83.7182 28.108 83.1542 27.968 82.6502 27.688C82.1462 27.4 81.7502 27 81.4622 26.488C81.1742 25.968 81.0302 25.368 81.0302 24.688C81.0302 24.016 81.1782 23.42 81.4742 22.9C81.7702 22.38 82.1742 21.98 82.6862 21.7C83.1982 21.42 83.7702 21.28 84.4022 21.28C85.0342 21.28 85.6062 21.42 86.1182 21.7C86.6302 21.98 87.0342 22.38 87.3302 22.9C87.6262 23.42 87.7742 24.016 87.7742 24.688C87.7742 25.36 87.6222 25.956 87.3182 26.476C87.0142 26.996 86.5982 27.4 86.0702 27.688C85.5502 27.968 84.9742 28.108 84.3422 28.108ZM84.3422 26.92C84.6942 26.92 85.0222 26.836 85.3262 26.668C85.6382 26.5 85.8902 26.248 86.0822 25.912C86.2742 25.576 86.3702 25.168 86.3702 24.688C86.3702 24.208 86.2782 23.804 86.0942 23.476C85.9102 23.14 85.6662 22.888 85.3622 22.72C85.0582 22.552 84.7302 22.468 84.3782 22.468C84.0262 22.468 83.6982 22.552 83.3942 22.72C83.0982 22.888 82.8622 23.14 82.6862 23.476C82.5102 23.804 82.4222 24.208 82.4222 24.688C82.4222 25.4 82.6022 25.952 82.9622 26.344C83.3302 26.728 83.7902 26.92 84.3422 26.92ZM97.1306 21.28C97.6506 21.28 98.1146 21.388 98.5226 21.604C98.9386 21.82 99.2626 22.14 99.4946 22.564C99.7346 22.988 99.8546 23.5 99.8546 24.1V28H98.4986V24.304C98.4986 23.712 98.3506 23.26 98.0546 22.948C97.7586 22.628 97.3546 22.468 96.8426 22.468C96.3306 22.468 95.9226 22.628 95.6186 22.948C95.3226 23.26 95.1746 23.712 95.1746 24.304V28H93.8186V24.304C93.8186 23.712 93.6706 23.26 93.3746 22.948C93.0786 22.628 92.6746 22.468 92.1626 22.468C91.6506 22.468 91.2426 22.628 90.9386 22.948C90.6426 23.26 90.4946 23.712 90.4946 24.304V28H89.1266V21.388H90.4946V22.144C90.7186 21.872 91.0026 21.66 91.3466 21.508C91.6906 21.356 92.0586 21.28 92.4506 21.28C92.9786 21.28 93.4506 21.392 93.8666 21.616C94.2826 21.84 94.6026 22.164 94.8266 22.588C95.0266 22.188 95.3386 21.872 95.7626 21.64C96.1866 21.4 96.6426 21.28 97.1306 21.28ZM107.655 24.532C107.655 24.78 107.639 25.004 107.607 25.204H102.555C102.595 25.732 102.791 26.156 103.143 26.476C103.495 26.796 103.927 26.956 104.439 26.956C105.175 26.956 105.695 26.648 105.999 26.032H107.475C107.275 26.64 106.911 27.14 106.383 27.532C105.863 27.916 105.215 28.108 104.439 28.108C103.807 28.108 103.239 27.968 102.735 27.688C102.239 27.4 101.847 27 101.559 26.488C101.279 25.968 101.139 25.368 101.139 24.688C101.139 24.008 101.275 23.412 101.547 22.9C101.827 22.38 102.215 21.98 102.711 21.7C103.215 21.42 103.791 21.28 104.439 21.28C105.063 21.28 105.619 21.416 106.107 21.688C106.595 21.96 106.975 22.344 107.247 22.84C107.519 23.328 107.655 23.892 107.655 24.532ZM106.227 24.1C106.219 23.596 106.039 23.192 105.687 22.888C105.335 22.584 104.899 22.432 104.379 22.432C103.907 22.432 103.503 22.584 103.167 22.888C102.831 23.184 102.631 23.588 102.567 24.1H106.227ZM110.37 22.348C110.57 22.012 110.834 21.752 111.162 21.568C111.498 21.376 111.894 21.28 112.35 21.28V22.696H112.002C111.466 22.696 111.058 22.832 110.778 23.104C110.506 23.376 110.37 23.848 110.37 24.52V28H109.002V21.388H110.37V22.348Z" fill="white"/>
</svg>
