<svg width="135" height="120" viewBox="0 0 135 120" fill="none" xmlns="http://www.w3.org/2000/svg">
<g filter="url(#filter0_d_1_66)">
<rect x="13" y="6" width="110" height="106" rx="13" fill="white"/>
<path d="M56.3636 85.1818H44.7273C43.9557 85.1818 43.2158 84.8753 42.6702 84.3298C42.1247 83.7842 41.8182 83.0443 41.8182 82.2727V70.6364C41.8182 69.8648 41.5117 69.1249 40.9661 68.5793C40.4206 68.0338 39.6806 67.7273 38.9091 67.7273C38.1376 67.7273 37.3976 68.0338 36.8521 68.5793C36.3065 69.1249 36 69.8648 36 70.6364V82.2727C36 84.5873 36.9195 86.8072 38.5562 88.4438C40.1928 90.0805 42.4127 91 44.7273 91H56.3636C57.1352 91 57.8751 90.6935 58.4207 90.148C58.9662 89.6024 59.2727 88.8624 59.2727 88.0909C59.2727 87.3194 58.9662 86.5794 58.4207 86.0339C57.8751 85.4883 57.1352 85.1818 56.3636 85.1818V85.1818ZM97.0909 67.7273C96.3194 67.7273 95.5794 68.0338 95.0339 68.5793C94.4883 69.1249 94.1818 69.8648 94.1818 70.6364V82.2727C94.1818 83.0443 93.8753 83.7842 93.3298 84.3298C92.7842 84.8753 92.0443 85.1818 91.2727 85.1818H79.6364C78.8648 85.1818 78.1249 85.4883 77.5793 86.0339C77.0338 86.5794 76.7273 87.3194 76.7273 88.0909C76.7273 88.8624 77.0338 89.6024 77.5793 90.148C78.1249 90.6935 78.8648 91 79.6364 91H91.2727C93.5873 91 95.8072 90.0805 97.4438 88.4438C99.0805 86.8072 100 84.5873 100 82.2727V70.6364C100 69.8648 99.6935 69.1249 99.148 68.5793C98.6024 68.0338 97.8624 67.7273 97.0909 67.7273ZM91.2727 27H79.6364C78.8648 27 78.1249 27.3065 77.5793 27.8521C77.0338 28.3976 76.7273 29.1376 76.7273 29.9091C76.7273 30.6806 77.0338 31.4206 77.5793 31.9661C78.1249 32.5117 78.8648 32.8182 79.6364 32.8182H91.2727C92.0443 32.8182 92.7842 33.1247 93.3298 33.6702C93.8753 34.2158 94.1818 34.9557 94.1818 35.7273V47.3636C94.1818 48.1352 94.4883 48.8751 95.0339 49.4207C95.5794 49.9662 96.3194 50.2727 97.0909 50.2727C97.8624 50.2727 98.6024 49.9662 99.148 49.4207C99.6935 48.8751 100 48.1352 100 47.3636V35.7273C100 33.4127 99.0805 31.1928 97.4438 29.5562C95.8072 27.9195 93.5873 27 91.2727 27V27ZM38.9091 50.2727C39.6806 50.2727 40.4206 49.9662 40.9661 49.4207C41.5117 48.8751 41.8182 48.1352 41.8182 47.3636V35.7273C41.8182 34.9557 42.1247 34.2158 42.6702 33.6702C43.2158 33.1247 43.9557 32.8182 44.7273 32.8182H56.3636C57.1352 32.8182 57.8751 32.5117 58.4207 31.9661C58.9662 31.4206 59.2727 30.6806 59.2727 29.9091C59.2727 29.1376 58.9662 28.3976 58.4207 27.8521C57.8751 27.3065 57.1352 27 56.3636 27H44.7273C42.4127 27 40.1928 27.9195 38.5562 29.5562C36.9195 31.1928 36 33.4127 36 35.7273V47.3636C36 48.1352 36.3065 48.8751 36.8521 49.4207C37.3976 49.9662 38.1376 50.2727 38.9091 50.2727ZM62.1818 38.6364H50.5455C49.7739 38.6364 49.034 38.9429 48.4884 39.4884C47.9429 40.034 47.6364 40.7739 47.6364 41.5455V53.1818C47.6364 53.9534 47.9429 54.6933 48.4884 55.2389C49.034 55.7844 49.7739 56.0909 50.5455 56.0909H62.1818C62.9534 56.0909 63.6933 55.7844 64.2389 55.2389C64.7844 54.6933 65.0909 53.9534 65.0909 53.1818V41.5455C65.0909 40.7739 64.7844 40.034 64.2389 39.4884C63.6933 38.9429 62.9534 38.6364 62.1818 38.6364ZM59.2727 50.2727H53.4545V44.4545H59.2727V50.2727ZM73.8182 56.0909H85.4545C86.2261 56.0909 86.966 55.7844 87.5116 55.2389C88.0571 54.6933 88.3636 53.9534 88.3636 53.1818V41.5455C88.3636 40.7739 88.0571 40.034 87.5116 39.4884C86.966 38.9429 86.2261 38.6364 85.4545 38.6364H73.8182C73.0466 38.6364 72.3067 38.9429 71.7611 39.4884C71.2156 40.034 70.9091 40.7739 70.9091 41.5455V53.1818C70.9091 53.9534 71.2156 54.6933 71.7611 55.2389C72.3067 55.7844 73.0466 56.0909 73.8182 56.0909ZM76.7273 44.4545H82.5455V50.2727H76.7273V44.4545ZM62.1818 61.9091H50.5455C49.7739 61.9091 49.034 62.2156 48.4884 62.7611C47.9429 63.3067 47.6364 64.0466 47.6364 64.8182V76.4545C47.6364 77.2261 47.9429 77.966 48.4884 78.5116C49.034 79.0571 49.7739 79.3636 50.5455 79.3636H62.1818C62.9534 79.3636 63.6933 79.0571 64.2389 78.5116C64.7844 77.966 65.0909 77.2261 65.0909 76.4545V64.8182C65.0909 64.0466 64.7844 63.3067 64.2389 62.7611C63.6933 62.2156 62.9534 61.9091 62.1818 61.9091ZM59.2727 73.5455H53.4545V67.7273H59.2727V73.5455ZM73.8182 70.6364C74.5897 70.6364 75.3297 70.3299 75.8752 69.7843C76.4208 69.2388 76.7273 68.4988 76.7273 67.7273C77.4988 67.7273 78.2388 67.4208 78.7843 66.8752C79.3299 66.3297 79.6364 65.5897 79.6364 64.8182C79.6364 64.0466 79.3299 63.3067 78.7843 62.7611C78.2388 62.2156 77.4988 61.9091 76.7273 61.9091H73.8182C73.0466 61.9091 72.3067 62.2156 71.7611 62.7611C71.2156 63.3067 70.9091 64.0466 70.9091 64.8182V67.7273C70.9091 68.4988 71.2156 69.2388 71.7611 69.7843C72.3067 70.3299 73.0466 70.6364 73.8182 70.6364ZM85.4545 61.9091C84.683 61.9091 83.9431 62.2156 83.3975 62.7611C82.8519 63.3067 82.5455 64.0466 82.5455 64.8182V73.5455C81.7739 73.5455 81.034 73.8519 80.4884 74.3975C79.9429 74.9431 79.6364 75.683 79.6364 76.4545C79.6364 77.2261 79.9429 77.966 80.4884 78.5116C81.034 79.0571 81.7739 79.3636 82.5455 79.3636H85.4545C86.2261 79.3636 86.966 79.0571 87.5116 78.5116C88.0571 77.966 88.3636 77.2261 88.3636 76.4545V64.8182C88.3636 64.0466 88.0571 63.3067 87.5116 62.7611C86.966 62.2156 86.2261 61.9091 85.4545 61.9091ZM73.8182 73.5455C73.2428 73.5455 72.6804 73.7161 72.202 74.0357C71.7236 74.3554 71.3507 74.8097 71.1305 75.3413C70.9104 75.8729 70.8527 76.4578 70.965 77.0221C71.0772 77.5864 71.3543 78.1047 71.7611 78.5116C72.168 78.9184 72.6863 79.1955 73.2506 79.3077C73.815 79.42 74.3999 79.3624 74.9314 79.1422C75.463 78.922 75.9173 78.5491 76.237 78.0708C76.5567 77.5924 76.7273 77.0299 76.7273 76.4545C76.7273 75.683 76.4208 74.9431 75.8752 74.3975C75.3297 73.8519 74.5897 73.5455 73.8182 73.5455Z" fill="#9BA2A6"/>
</g>
<circle cx="124.5" cy="10.5" r="10.5" fill="#1AA789"/>
<path d="M120 6H124.5V10.5H120V6ZM121 7V9.5H123.5V7H121ZM120 11.5H124.5V16H120V11.5ZM121 12.5V15H123.5V12.5H121ZM125.5 6H130V10.5H125.5V6ZM126.5 7V9.5H129V7H126.5ZM125.5 11.5H130V16H125.5V11.5ZM126.5 12.5V15H129V12.5H126.5Z" fill="white"/>
<circle cx="13" cy="104" r="13" fill="#1AA789"/>
<path d="M16 97C16.2652 97 16.5196 97.1054 16.7071 97.2929C16.8946 97.4804 17 97.7348 17 98V110C17 110.265 16.8946 110.52 16.7071 110.707C16.5196 110.895 16.2652 111 16 111H10C9.73478 111 9.48043 110.895 9.29289 110.707C9.10536 110.52 9 110.265 9 110V98C9 97.7348 9.10536 97.4804 9.29289 97.2929C9.48043 97.1054 9.73478 97 10 97H16ZM10 96C9.46957 96 8.96086 96.2107 8.58579 96.5858C8.21071 96.9609 8 97.4696 8 98V110C8 110.53 8.21071 111.039 8.58579 111.414C8.96086 111.789 9.46957 112 10 112H16C16.5304 112 17.0391 111.789 17.4142 111.414C17.7893 111.039 18 110.53 18 110V98C18 97.4696 17.7893 96.9609 17.4142 96.5858C17.0391 96.2107 16.5304 96 16 96H10Z" fill="white"/>
<path d="M13 110C13.2652 110 13.5196 109.895 13.7071 109.707C13.8946 109.52 14 109.265 14 109C14 108.735 13.8946 108.48 13.7071 108.293C13.5196 108.105 13.2652 108 13 108C12.7348 108 12.4804 108.105 12.2929 108.293C12.1054 108.48 12 108.735 12 109C12 109.265 12.1054 109.52 12.2929 109.707C12.4804 109.895 12.7348 110 13 110Z" fill="white"/>
<defs>
<filter id="filter0_d_1_66" x="9" y="6" width="118" height="114" filterUnits="userSpaceOnUse" color-interpolation-filters="sRGB">
<feFlood flood-opacity="0" result="BackgroundImageFix"/>
<feColorMatrix in="SourceAlpha" type="matrix" values="0 0 0 0 0 0 0 0 0 0 0 0 0 0 0 0 0 0 127 0" result="hardAlpha"/>
<feOffset dy="4"/>
<feGaussianBlur stdDeviation="2"/>
<feComposite in2="hardAlpha" operator="out"/>
<feColorMatrix type="matrix" values="0 0 0 0 0 0 0 0 0 0 0 0 0 0 0 0 0 0 0.1 0"/>
<feBlend mode="normal" in2="BackgroundImageFix" result="effect1_dropShadow_1_66"/>
<feBlend mode="normal" in="SourceGraphic" in2="effect1_dropShadow_1_66" result="shape"/>
</filter>
</defs>
</svg>
