<svg width="118" height="114" viewBox="0 0 118 114" fill="none" xmlns="http://www.w3.org/2000/svg">
<g filter="url(#filter0_d_1_92)">
<rect x="4" width="110" height="106" rx="13" fill="#1AA789"/>
<path d="M47.3636 79.1818H35.7273C34.9557 79.1818 34.2158 78.8753 33.6702 78.3298C33.1247 77.7842 32.8182 77.0443 32.8182 76.2727V64.6364C32.8182 63.8648 32.5117 63.1249 31.9661 62.5793C31.4206 62.0338 30.6806 61.7273 29.9091 61.7273C29.1376 61.7273 28.3976 62.0338 27.8521 62.5793C27.3065 63.1249 27 63.8648 27 64.6364V76.2727C27 78.5873 27.9195 80.8072 29.5562 82.4438C31.1928 84.0805 33.4127 85 35.7273 85H47.3636C48.1352 85 48.8751 84.6935 49.4207 84.148C49.9662 83.6024 50.2727 82.8624 50.2727 82.0909C50.2727 81.3194 49.9662 80.5794 49.4207 80.0339C48.8751 79.4883 48.1352 79.1818 47.3636 79.1818V79.1818ZM88.0909 61.7273C87.3194 61.7273 86.5794 62.0338 86.0339 62.5793C85.4883 63.1249 85.1818 63.8648 85.1818 64.6364V76.2727C85.1818 77.0443 84.8753 77.7842 84.3298 78.3298C83.7842 78.8753 83.0443 79.1818 82.2727 79.1818H70.6364C69.8648 79.1818 69.1249 79.4883 68.5793 80.0339C68.0338 80.5794 67.7273 81.3194 67.7273 82.0909C67.7273 82.8624 68.0338 83.6024 68.5793 84.148C69.1249 84.6935 69.8648 85 70.6364 85H82.2727C84.5873 85 86.8072 84.0805 88.4438 82.4438C90.0805 80.8072 91 78.5873 91 76.2727V64.6364C91 63.8648 90.6935 63.1249 90.148 62.5793C89.6024 62.0338 88.8624 61.7273 88.0909 61.7273ZM82.2727 21H70.6364C69.8648 21 69.1249 21.3065 68.5793 21.8521C68.0338 22.3976 67.7273 23.1376 67.7273 23.9091C67.7273 24.6806 68.0338 25.4206 68.5793 25.9661C69.1249 26.5117 69.8648 26.8182 70.6364 26.8182H82.2727C83.0443 26.8182 83.7842 27.1247 84.3298 27.6702C84.8753 28.2158 85.1818 28.9557 85.1818 29.7273V41.3636C85.1818 42.1352 85.4883 42.8751 86.0339 43.4207C86.5794 43.9662 87.3194 44.2727 88.0909 44.2727C88.8624 44.2727 89.6024 43.9662 90.148 43.4207C90.6935 42.8751 91 42.1352 91 41.3636V29.7273C91 27.4127 90.0805 25.1928 88.4438 23.5562C86.8072 21.9195 84.5873 21 82.2727 21V21ZM29.9091 44.2727C30.6806 44.2727 31.4206 43.9662 31.9661 43.4207C32.5117 42.8751 32.8182 42.1352 32.8182 41.3636V29.7273C32.8182 28.9557 33.1247 28.2158 33.6702 27.6702C34.2158 27.1247 34.9557 26.8182 35.7273 26.8182H47.3636C48.1352 26.8182 48.8751 26.5117 49.4207 25.9661C49.9662 25.4206 50.2727 24.6806 50.2727 23.9091C50.2727 23.1376 49.9662 22.3976 49.4207 21.8521C48.8751 21.3065 48.1352 21 47.3636 21H35.7273C33.4127 21 31.1928 21.9195 29.5562 23.5562C27.9195 25.1928 27 27.4127 27 29.7273V41.3636C27 42.1352 27.3065 42.8751 27.8521 43.4207C28.3976 43.9662 29.1376 44.2727 29.9091 44.2727ZM53.1818 32.6364H41.5455C40.7739 32.6364 40.034 32.9429 39.4884 33.4884C38.9429 34.034 38.6364 34.7739 38.6364 35.5455V47.1818C38.6364 47.9534 38.9429 48.6933 39.4884 49.2389C40.034 49.7844 40.7739 50.0909 41.5455 50.0909H53.1818C53.9534 50.0909 54.6933 49.7844 55.2389 49.2389C55.7844 48.6933 56.0909 47.9534 56.0909 47.1818V35.5455C56.0909 34.7739 55.7844 34.034 55.2389 33.4884C54.6933 32.9429 53.9534 32.6364 53.1818 32.6364ZM50.2727 44.2727H44.4545V38.4545H50.2727V44.2727ZM64.8182 50.0909H76.4545C77.2261 50.0909 77.966 49.7844 78.5116 49.2389C79.0571 48.6933 79.3636 47.9534 79.3636 47.1818V35.5455C79.3636 34.7739 79.0571 34.034 78.5116 33.4884C77.966 32.9429 77.2261 32.6364 76.4545 32.6364H64.8182C64.0466 32.6364 63.3067 32.9429 62.7611 33.4884C62.2156 34.034 61.9091 34.7739 61.9091 35.5455V47.1818C61.9091 47.9534 62.2156 48.6933 62.7611 49.2389C63.3067 49.7844 64.0466 50.0909 64.8182 50.0909ZM67.7273 38.4545H73.5455V44.2727H67.7273V38.4545ZM53.1818 55.9091H41.5455C40.7739 55.9091 40.034 56.2156 39.4884 56.7611C38.9429 57.3067 38.6364 58.0466 38.6364 58.8182V70.4545C38.6364 71.2261 38.9429 71.966 39.4884 72.5116C40.034 73.0571 40.7739 73.3636 41.5455 73.3636H53.1818C53.9534 73.3636 54.6933 73.0571 55.2389 72.5116C55.7844 71.966 56.0909 71.2261 56.0909 70.4545V58.8182C56.0909 58.0466 55.7844 57.3067 55.2389 56.7611C54.6933 56.2156 53.9534 55.9091 53.1818 55.9091ZM50.2727 67.5455H44.4545V61.7273H50.2727V67.5455ZM64.8182 64.6364C65.5897 64.6364 66.3297 64.3299 66.8752 63.7843C67.4208 63.2388 67.7273 62.4988 67.7273 61.7273C68.4988 61.7273 69.2388 61.4208 69.7843 60.8752C70.3299 60.3297 70.6364 59.5897 70.6364 58.8182C70.6364 58.0466 70.3299 57.3067 69.7843 56.7611C69.2388 56.2156 68.4988 55.9091 67.7273 55.9091H64.8182C64.0466 55.9091 63.3067 56.2156 62.7611 56.7611C62.2156 57.3067 61.9091 58.0466 61.9091 58.8182V61.7273C61.9091 62.4988 62.2156 63.2388 62.7611 63.7843C63.3067 64.3299 64.0466 64.6364 64.8182 64.6364ZM76.4545 55.9091C75.683 55.9091 74.9431 56.2156 74.3975 56.7611C73.8519 57.3067 73.5455 58.0466 73.5455 58.8182V67.5455C72.7739 67.5455 72.034 67.8519 71.4884 68.3975C70.9429 68.9431 70.6364 69.683 70.6364 70.4545C70.6364 71.2261 70.9429 71.966 71.4884 72.5116C72.034 73.0571 72.7739 73.3636 73.5455 73.3636H76.4545C77.2261 73.3636 77.966 73.0571 78.5116 72.5116C79.0571 71.966 79.3636 71.2261 79.3636 70.4545V58.8182C79.3636 58.0466 79.0571 57.3067 78.5116 56.7611C77.966 56.2156 77.2261 55.9091 76.4545 55.9091ZM64.8182 67.5455C64.2428 67.5455 63.6804 67.7161 63.202 68.0357C62.7236 68.3554 62.3507 68.8097 62.1305 69.3413C61.9104 69.8729 61.8527 70.4578 61.965 71.0221C62.0772 71.5864 62.3543 72.1047 62.7611 72.5116C63.168 72.9184 63.6863 73.1955 64.2506 73.3077C64.815 73.42 65.3999 73.3624 65.9314 73.1422C66.463 72.922 66.9173 72.5491 67.237 72.0708C67.5567 71.5924 67.7273 71.0299 67.7273 70.4545C67.7273 69.683 67.4208 68.9431 66.8752 68.3975C66.3297 67.8519 65.5897 67.5455 64.8182 67.5455Z" fill="white"/>
</g>
<defs>
<filter id="filter0_d_1_92" x="0" y="0" width="118" height="114" filterUnits="userSpaceOnUse" color-interpolation-filters="sRGB">
<feFlood flood-opacity="0" result="BackgroundImageFix"/>
<feColorMatrix in="SourceAlpha" type="matrix" values="0 0 0 0 0 0 0 0 0 0 0 0 0 0 0 0 0 0 127 0" result="hardAlpha"/>
<feOffset dy="4"/>
<feGaussianBlur stdDeviation="2"/>
<feComposite in2="hardAlpha" operator="out"/>
<feColorMatrix type="matrix" values="0 0 0 0 0 0 0 0 0 0 0 0 0 0 0 0 0 0 0.1 0"/>
<feBlend mode="normal" in2="BackgroundImageFix" result="effect1_dropShadow_1_92"/>
<feBlend mode="normal" in="SourceGraphic" in2="effect1_dropShadow_1_92" result="shape"/>
</filter>
</defs>
</svg>
